<?xml version="1.0" encoding="utf-8"?>
<!-- Generator: Adobe Illustrator 16.0.3, SVG Export Plug-In . SVG Version: 6.00 Build 0)  -->
<!DOCTYPE svg PUBLIC "-//W3C//DTD SVG 1.1//EN" "http://www.w3.org/Graphics/SVG/1.1/DTD/svg11.dtd">
<svg version="1.1" id="Layer_1" xmlns="http://www.w3.org/2000/svg" xmlns:xlink="http://www.w3.org/1999/xlink" x="0px" y="0px"
	 width="841.89px" height="595.28px" viewBox="0 0 841.89 595.28" enable-background="new 0 0 841.89 595.28" xml:space="preserve">
<g>
	<path fill="none" stroke="#24211D" stroke-width="0.5" stroke-linecap="square" stroke-miterlimit="10" d="M187.704,186.351
		c6.434-18.025,48.902-48.926,39.894-10.3c-3.861,15.451-12.869,29.613-20.59,43.776c-2.574,2.575-18.017,25.75-21.877,21.888
		c-10.295-10.3,30.885-59.226,41.181-65.664c45.041-27.038-28.312,88.839-3.861,68.239c3.861-3.862,24.451-41.201,23.164-37.338
		c-3.861,5.15-9.008,36.051-5.147,28.325c7.721-14.163,12.869-30.9,33.459-32.188c5.148-1.288,14.156,7.725,5.148,2.575
		c-11.582-5.15-30.886,11.588-27.025,24.463c5.147,19.313,24.451-2.575,27.025-11.588c12.869-30.9,0,90.127-24.451,74.677
		c-20.59-12.875,66.918-91.415,54.05-126.178c-6.435-20.6-11.582,12.875-12.869,20.601l-3.861,47.638
		c0,1.288,6.435-19.313,11.582-25.75c20.59-27.038,10.295,18.025,14.156,23.175c15.442,18.025,20.59-46.351,23.164-56.651
		c6.434-24.463-32.172,88.839,11.581,46.351c14.156-12.875,7.722-42.488-7.721-42.488c-10.294,0-32.172,18.025-19.303,27.038
		c10.295,7.725,91.369,7.725,99.091-55.364c3.859-21.888-43.755,75.964-46.329,86.264c-9.008,24.463-15.442,103.002,20.591,46.351
		c7.722-14.163,38.606-73.389-3.86-59.226c-18.017,7.725-24.452,32.188,1.286,18.025c16.73-10.3,37.319-29.613,45.041-47.639
		c7.722-15.45-14.155,2.575-18.017,12.875c-11.581,34.763,12.869,27.038,23.164-5.15c2.574-11.587-5.147,2.575,10.295,2.575
		c12.869,0,5.147,16.738,1.288,24.463c-5.147,7.725-11.583,10.3-11.583,0c0-2.575,2.574,10.3,18.017-2.575
		c14.156-11.587,20.591-37.338,16.73-54.076c0,20.6-5.147,41.201-6.436,63.088c-1.286,12.875,18.017-29.613,18.017-28.325
		c-12.868,60.514-2.573-23.176,41.181-7.725c18.017,6.438-3.859-2.575-11.581,2.575c-9.009,6.438-12.869,32.188-1.288,32.188
		c14.157,0,20.591-21.888,20.591-32.188c0-1.288-7.722,24.463,5.147,30.901c28.312,14.163,46.328-60.514,34.746-79.827
		c-14.155-23.175-16.729,52.789-18.016,60.514C553.182,279.052,698.6,179.913,593.074,140
		c-32.172-12.875-113.246-16.738-140.271,9.013c-14.157,11.587-20.591,37.338,2.573,45.063
		c28.312,9.013,75.927-36.051,104.238-45.063c16.729-6.438,29.6-7.726,47.614,11.587c57.911,61.801-177.59,136.478-196.894,142.916
		c-41.181,12.875-182.739,60.514-167.296,123.603c0-32.188,79.788-78.539,104.238-54.076
		c25.738,25.75-92.656,119.739-114.533,130.04c-39.894,16.737-75.926-28.326-28.312-36.051
		c45.042-6.438,88.796,33.476,137.697,24.463c32.172-5.15,129.976-60.514,92.657-103.002c-37.32-43.776-95.23,25.75-101.665,63.089
		c-16.729,115.877,191.747-6.438,132.549-70.814c-46.328-51.501-135.123,50.214-63.058,100.428
		c72.065,47.638,102.951-79.827,99.091-126.178c-2.573-28.326-12.868,140.34-25.737,132.615
		c-9.009-6.438,151.853-140.341,149.278-133.903c-1.286,3.863-60.483,37.339-70.778,45.063
		c-106.812,86.265,19.304,110.728,86.222,54.076c46.328-39.913-21.609-36.203-51.757-31.017
		c-39.913,6.867-93.662,68.354-44.76,73.505"/>
</g>
</svg>
